<mxfile host="app.diagrams.net" modified="2024-03-03T17:47:04.986Z" agent="Mozilla/5.0 (Windows NT 10.0; Win64; x64) AppleWebKit/537.36 (KHTML, like Gecko) Chrome/109.0.0.0 Safari/537.36" etag="__Yg2YQQ0gC5bN11wST0" version="24.0.1" type="google">
  <diagram name="Página-1" id="wjt_wNT9pInLbBbozji_">
    <mxGraphModel grid="1" page="1" gridSize="10" guides="1" tooltips="1" connect="1" arrows="1" fold="1" pageScale="1" pageWidth="827" pageHeight="1169" math="0" shadow="0">
      <root>
        <mxCell id="0" />
        <mxCell id="1" parent="0" />
        <mxCell id="Tp81bI-9_jp-oIlbRrjL-5" value="" style="rounded=1;whiteSpace=wrap;html=1;" vertex="1" parent="1">
          <mxGeometry x="29" y="-50" width="660" height="890" as="geometry" />
        </mxCell>
        <mxCell id="FshZVi81owRnNkDoLixd-5" style="rounded=0;orthogonalLoop=1;jettySize=auto;html=1;exitX=1;exitY=0.3333333333333333;exitDx=0;exitDy=0;exitPerimeter=0;entryX=0;entryY=0.5;entryDx=0;entryDy=0;" edge="1" parent="1" source="Tp81bI-9_jp-oIlbRrjL-1" target="Tp81bI-9_jp-oIlbRrjL-8">
          <mxGeometry relative="1" as="geometry" />
        </mxCell>
        <mxCell id="FshZVi81owRnNkDoLixd-6" style="rounded=0;orthogonalLoop=1;jettySize=auto;html=1;exitX=1;exitY=0.3333333333333333;exitDx=0;exitDy=0;exitPerimeter=0;entryX=0;entryY=0.5;entryDx=0;entryDy=0;" edge="1" parent="1" source="Tp81bI-9_jp-oIlbRrjL-1" target="Tp81bI-9_jp-oIlbRrjL-10">
          <mxGeometry relative="1" as="geometry" />
        </mxCell>
        <mxCell id="FshZVi81owRnNkDoLixd-7" style="rounded=0;orthogonalLoop=1;jettySize=auto;html=1;exitX=1;exitY=0.3333333333333333;exitDx=0;exitDy=0;exitPerimeter=0;entryX=0;entryY=0.5;entryDx=0;entryDy=0;" edge="1" parent="1" source="Tp81bI-9_jp-oIlbRrjL-1" target="Tp81bI-9_jp-oIlbRrjL-12">
          <mxGeometry relative="1" as="geometry" />
        </mxCell>
        <mxCell id="FshZVi81owRnNkDoLixd-8" style="rounded=0;orthogonalLoop=1;jettySize=auto;html=1;exitX=1;exitY=0.3333333333333333;exitDx=0;exitDy=0;exitPerimeter=0;entryX=0;entryY=0.5;entryDx=0;entryDy=0;" edge="1" parent="1" source="Tp81bI-9_jp-oIlbRrjL-1" target="Tp81bI-9_jp-oIlbRrjL-9">
          <mxGeometry relative="1" as="geometry" />
        </mxCell>
        <mxCell id="FshZVi81owRnNkDoLixd-9" style="edgeStyle=none;rounded=0;orthogonalLoop=1;jettySize=auto;html=1;exitX=1;exitY=0.3333333333333333;exitDx=0;exitDy=0;exitPerimeter=0;entryX=0;entryY=0.5;entryDx=0;entryDy=0;" edge="1" parent="1" source="Tp81bI-9_jp-oIlbRrjL-1" target="Tp81bI-9_jp-oIlbRrjL-14">
          <mxGeometry relative="1" as="geometry" />
        </mxCell>
        <mxCell id="FshZVi81owRnNkDoLixd-10" style="edgeStyle=none;rounded=0;orthogonalLoop=1;jettySize=auto;html=1;exitX=1;exitY=0.3333333333333333;exitDx=0;exitDy=0;exitPerimeter=0;entryX=0;entryY=0.5;entryDx=0;entryDy=0;" edge="1" parent="1" source="Tp81bI-9_jp-oIlbRrjL-1" target="Tp81bI-9_jp-oIlbRrjL-15">
          <mxGeometry relative="1" as="geometry" />
        </mxCell>
        <mxCell id="FshZVi81owRnNkDoLixd-11" style="edgeStyle=none;rounded=0;orthogonalLoop=1;jettySize=auto;html=1;exitX=1;exitY=0.3333333333333333;exitDx=0;exitDy=0;exitPerimeter=0;entryX=0;entryY=0.5;entryDx=0;entryDy=0;" edge="1" parent="1" source="Tp81bI-9_jp-oIlbRrjL-1" target="Tp81bI-9_jp-oIlbRrjL-16">
          <mxGeometry relative="1" as="geometry" />
        </mxCell>
        <mxCell id="FshZVi81owRnNkDoLixd-12" style="edgeStyle=none;rounded=0;orthogonalLoop=1;jettySize=auto;html=1;exitX=1;exitY=0.3333333333333333;exitDx=0;exitDy=0;exitPerimeter=0;entryX=0;entryY=0.5;entryDx=0;entryDy=0;" edge="1" parent="1" source="Tp81bI-9_jp-oIlbRrjL-1" target="Tp81bI-9_jp-oIlbRrjL-17">
          <mxGeometry relative="1" as="geometry" />
        </mxCell>
        <mxCell id="FshZVi81owRnNkDoLixd-13" style="edgeStyle=none;rounded=0;orthogonalLoop=1;jettySize=auto;html=1;exitX=1;exitY=0.3333333333333333;exitDx=0;exitDy=0;exitPerimeter=0;entryX=0;entryY=0.5;entryDx=0;entryDy=0;" edge="1" parent="1" source="Tp81bI-9_jp-oIlbRrjL-1" target="FshZVi81owRnNkDoLixd-4">
          <mxGeometry relative="1" as="geometry" />
        </mxCell>
        <mxCell id="FshZVi81owRnNkDoLixd-14" style="edgeStyle=none;rounded=0;orthogonalLoop=1;jettySize=auto;html=1;exitX=1;exitY=0.3333333333333333;exitDx=0;exitDy=0;exitPerimeter=0;entryX=0;entryY=0.5;entryDx=0;entryDy=0;" edge="1" parent="1" source="Tp81bI-9_jp-oIlbRrjL-1" target="k-hiotloEBNPpJEQtQIQ-1">
          <mxGeometry relative="1" as="geometry" />
        </mxCell>
        <mxCell id="FshZVi81owRnNkDoLixd-15" style="edgeStyle=none;rounded=0;orthogonalLoop=1;jettySize=auto;html=1;exitX=1;exitY=0.3333333333333333;exitDx=0;exitDy=0;exitPerimeter=0;entryX=0;entryY=0.5;entryDx=0;entryDy=0;" edge="1" parent="1" source="Tp81bI-9_jp-oIlbRrjL-1" target="Tp81bI-9_jp-oIlbRrjL-11">
          <mxGeometry relative="1" as="geometry" />
        </mxCell>
        <mxCell id="Tp81bI-9_jp-oIlbRrjL-1" value="Administrador" style="shape=umlActor;verticalLabelPosition=bottom;verticalAlign=top;html=1;outlineConnect=0;" vertex="1" parent="1">
          <mxGeometry x="-260" y="410" width="90" height="117" as="geometry" />
        </mxCell>
        <mxCell id="Tp81bI-9_jp-oIlbRrjL-4" value="&lt;b&gt;&lt;font face=&quot;Georgia&quot; style=&quot;font-size: 36px;&quot;&gt;CASOS DE USO&lt;/font&gt;&lt;/b&gt;" style="rounded=1;whiteSpace=wrap;html=1;" vertex="1" parent="1">
          <mxGeometry x="136" y="-140" width="418" height="70" as="geometry" />
        </mxCell>
        <mxCell id="Tp81bI-9_jp-oIlbRrjL-8" value="Iniciar sesión" style="ellipse;whiteSpace=wrap;html=1;" vertex="1" parent="1">
          <mxGeometry x="210" y="-30" width="290" height="40" as="geometry" />
        </mxCell>
        <mxCell id="Tp81bI-9_jp-oIlbRrjL-9" value="Hacer facturación de ventas y cotizaciones" style="ellipse;whiteSpace=wrap;html=1;" vertex="1" parent="1">
          <mxGeometry x="200" y="410" width="290" height="40" as="geometry" />
        </mxCell>
        <mxCell id="Tp81bI-9_jp-oIlbRrjL-10" value="&lt;br&gt;Editar la información de las&amp;nbsp; categorías y los productos&lt;br&gt;&amp;nbsp;" style="ellipse;whiteSpace=wrap;html=1;" vertex="1" parent="1">
          <mxGeometry x="210" y="160" width="290" height="60" as="geometry" />
        </mxCell>
        <mxCell id="Tp81bI-9_jp-oIlbRrjL-11" value="&lt;br&gt;&lt;span style=&quot;color: rgb(0, 0, 0); font-family: Helvetica; font-size: 12px; font-style: normal; font-variant-ligatures: normal; font-variant-caps: normal; font-weight: 400; letter-spacing: normal; orphans: 2; text-align: center; text-indent: 0px; text-transform: none; widows: 2; word-spacing: 0px; -webkit-text-stroke-width: 0px; background-color: rgb(251, 251, 251); text-decoration-thickness: initial; text-decoration-style: initial; text-decoration-color: initial; float: none; display: inline !important;&quot;&gt;Eliminar o desactivar las&amp;nbsp; categorías y los productos&lt;/span&gt;" style="ellipse;whiteSpace=wrap;html=1;" vertex="1" parent="1">
          <mxGeometry x="200" y="230" width="310" height="40" as="geometry" />
        </mxCell>
        <mxCell id="Tp81bI-9_jp-oIlbRrjL-12" value="Editar perfil de usuario" style="ellipse;whiteSpace=wrap;html=1;" vertex="1" parent="1">
          <mxGeometry x="210" y="360" width="290" height="40" as="geometry" />
        </mxCell>
        <mxCell id="Tp81bI-9_jp-oIlbRrjL-14" value="Visualizar las estadísticas del negocio" style="ellipse;whiteSpace=wrap;html=1;" vertex="1" parent="1">
          <mxGeometry x="195" y="460" width="290" height="40" as="geometry" />
        </mxCell>
        <mxCell id="Tp81bI-9_jp-oIlbRrjL-15" value="Acceder al historial de ventas" style="ellipse;whiteSpace=wrap;html=1;" vertex="1" parent="1">
          <mxGeometry x="195" y="510" width="290" height="40" as="geometry" />
        </mxCell>
        <mxCell id="Tp81bI-9_jp-oIlbRrjL-16" value="Cambiar contraseña" style="ellipse;whiteSpace=wrap;html=1;" vertex="1" parent="1">
          <mxGeometry x="195" y="610" width="290" height="40" as="geometry" />
        </mxCell>
        <mxCell id="Tp81bI-9_jp-oIlbRrjL-17" value="Ingresar al reporte de ventas" style="ellipse;whiteSpace=wrap;html=1;" vertex="1" parent="1">
          <mxGeometry x="190" y="660" width="290" height="40" as="geometry" />
        </mxCell>
        <mxCell id="Tp81bI-9_jp-oIlbRrjL-18" value="Crear nuevas categorías y productos&amp;nbsp;" style="ellipse;whiteSpace=wrap;html=1;" vertex="1" parent="1">
          <mxGeometry x="210" y="70" width="290" height="40" as="geometry" />
        </mxCell>
        <mxCell id="FshZVi81owRnNkDoLixd-20" style="edgeStyle=none;rounded=0;orthogonalLoop=1;jettySize=auto;html=1;exitX=0;exitY=0.3333333333333333;exitDx=0;exitDy=0;exitPerimeter=0;entryX=0.966;entryY=0.75;entryDx=0;entryDy=0;entryPerimeter=0;" edge="1" parent="1" source="FshZVi81owRnNkDoLixd-2" target="Tp81bI-9_jp-oIlbRrjL-12">
          <mxGeometry relative="1" as="geometry">
            <mxPoint x="620" y="420" as="targetPoint" />
          </mxGeometry>
        </mxCell>
        <mxCell id="FshZVi81owRnNkDoLixd-21" style="edgeStyle=none;rounded=0;orthogonalLoop=1;jettySize=auto;html=1;exitX=0;exitY=0.3333333333333333;exitDx=0;exitDy=0;exitPerimeter=0;entryX=1;entryY=0.5;entryDx=0;entryDy=0;" edge="1" parent="1" source="FshZVi81owRnNkDoLixd-2" target="Tp81bI-9_jp-oIlbRrjL-9">
          <mxGeometry relative="1" as="geometry" />
        </mxCell>
        <mxCell id="FshZVi81owRnNkDoLixd-22" style="edgeStyle=none;rounded=0;orthogonalLoop=1;jettySize=auto;html=1;exitX=0;exitY=0.3333333333333333;exitDx=0;exitDy=0;exitPerimeter=0;entryX=1;entryY=0.5;entryDx=0;entryDy=0;" edge="1" parent="1" source="FshZVi81owRnNkDoLixd-2" target="Tp81bI-9_jp-oIlbRrjL-15">
          <mxGeometry relative="1" as="geometry" />
        </mxCell>
        <mxCell id="FshZVi81owRnNkDoLixd-23" style="edgeStyle=none;rounded=0;orthogonalLoop=1;jettySize=auto;html=1;exitX=0;exitY=0.3333333333333333;exitDx=0;exitDy=0;exitPerimeter=0;entryX=1;entryY=0.5;entryDx=0;entryDy=0;" edge="1" parent="1" source="FshZVi81owRnNkDoLixd-2" target="Tp81bI-9_jp-oIlbRrjL-16">
          <mxGeometry relative="1" as="geometry" />
        </mxCell>
        <mxCell id="FshZVi81owRnNkDoLixd-25" style="edgeStyle=none;rounded=0;orthogonalLoop=1;jettySize=auto;html=1;exitX=0;exitY=0.3333333333333333;exitDx=0;exitDy=0;exitPerimeter=0;entryX=1;entryY=0.5;entryDx=0;entryDy=0;" edge="1" parent="1" source="FshZVi81owRnNkDoLixd-2" target="FshZVi81owRnNkDoLixd-4">
          <mxGeometry relative="1" as="geometry" />
        </mxCell>
        <mxCell id="FshZVi81owRnNkDoLixd-2" value="Empleado" style="shape=umlActor;verticalLabelPosition=bottom;verticalAlign=top;html=1;outlineConnect=0;" vertex="1" parent="1">
          <mxGeometry x="870" y="533" width="90" height="117" as="geometry" />
        </mxCell>
        <mxCell id="FshZVi81owRnNkDoLixd-16" style="edgeStyle=none;rounded=0;orthogonalLoop=1;jettySize=auto;html=1;exitX=0;exitY=0.3333333333333333;exitDx=0;exitDy=0;exitPerimeter=0;entryX=0.966;entryY=0.25;entryDx=0;entryDy=0;entryPerimeter=0;" edge="1" parent="1" source="FshZVi81owRnNkDoLixd-3" target="Tp81bI-9_jp-oIlbRrjL-8">
          <mxGeometry relative="1" as="geometry" />
        </mxCell>
        <mxCell id="FshZVi81owRnNkDoLixd-19" style="edgeStyle=none;rounded=0;orthogonalLoop=1;jettySize=auto;html=1;exitX=0;exitY=0.3333333333333333;exitDx=0;exitDy=0;exitPerimeter=0;entryX=1;entryY=0.5;entryDx=0;entryDy=0;" edge="1" parent="1" source="FshZVi81owRnNkDoLixd-3" target="Tp81bI-9_jp-oIlbRrjL-12">
          <mxGeometry relative="1" as="geometry" />
        </mxCell>
        <mxCell id="FshZVi81owRnNkDoLixd-3" value="Supervisor" style="shape=umlActor;verticalLabelPosition=bottom;verticalAlign=top;html=1;outlineConnect=0;" vertex="1" parent="1">
          <mxGeometry x="870" y="230" width="90" height="117" as="geometry" />
        </mxCell>
        <mxCell id="FshZVi81owRnNkDoLixd-4" value="Visualizar lista de productos y categorías&amp;nbsp;" style="ellipse;whiteSpace=wrap;html=1;" vertex="1" parent="1">
          <mxGeometry x="190" y="720" width="290" height="40" as="geometry" />
        </mxCell>
        <mxCell id="FshZVi81owRnNkDoLixd-17" style="edgeStyle=none;rounded=0;orthogonalLoop=1;jettySize=auto;html=1;exitX=0;exitY=0.3333333333333333;exitDx=0;exitDy=0;exitPerimeter=0;entryX=1;entryY=0.5;entryDx=0;entryDy=0;" edge="1" parent="1" source="FshZVi81owRnNkDoLixd-2" target="Tp81bI-9_jp-oIlbRrjL-8">
          <mxGeometry relative="1" as="geometry">
            <mxPoint x="460" y="230" as="targetPoint" />
          </mxGeometry>
        </mxCell>
        <mxCell id="FshZVi81owRnNkDoLixd-26" style="edgeStyle=none;rounded=0;orthogonalLoop=1;jettySize=auto;html=1;exitX=0;exitY=0.3333333333333333;exitDx=0;exitDy=0;exitPerimeter=0;entryX=0.958;entryY=0.319;entryDx=0;entryDy=0;entryPerimeter=0;" edge="1" parent="1" source="FshZVi81owRnNkDoLixd-3" target="FshZVi81owRnNkDoLixd-4">
          <mxGeometry relative="1" as="geometry" />
        </mxCell>
        <mxCell id="FshZVi81owRnNkDoLixd-28" style="edgeStyle=none;rounded=0;orthogonalLoop=1;jettySize=auto;html=1;exitX=0;exitY=0.3333333333333333;exitDx=0;exitDy=0;exitPerimeter=0;entryX=0.963;entryY=0.262;entryDx=0;entryDy=0;entryPerimeter=0;" edge="1" parent="1" source="FshZVi81owRnNkDoLixd-3" target="Tp81bI-9_jp-oIlbRrjL-15">
          <mxGeometry relative="1" as="geometry" />
        </mxCell>
        <mxCell id="dIth-lzhAZ8oeRemYPZV-4" value="&lt;br&gt;&lt;span style=&quot;color: rgb(0, 0, 0); font-family: Helvetica; font-size: 12px; font-style: normal; font-variant-ligatures: normal; font-variant-caps: normal; font-weight: 400; letter-spacing: normal; orphans: 2; text-align: center; text-indent: 0px; text-transform: none; widows: 2; word-spacing: 0px; -webkit-text-stroke-width: 0px; background-color: rgb(251, 251, 251); text-decoration-thickness: initial; text-decoration-style: initial; text-decoration-color: initial; float: none; display: inline !important;&quot;&gt;Consultar&amp;nbsp; las&amp;nbsp; categorías y los productos&lt;/span&gt;" style="ellipse;whiteSpace=wrap;html=1;" vertex="1" parent="1">
          <mxGeometry x="220" y="280" width="270" height="70" as="geometry" />
        </mxCell>
        <mxCell id="dIth-lzhAZ8oeRemYPZV-5" style="edgeStyle=none;rounded=0;orthogonalLoop=1;jettySize=auto;html=1;entryX=1;entryY=0.5;entryDx=0;entryDy=0;" edge="1" parent="1" target="Tp81bI-9_jp-oIlbRrjL-18">
          <mxGeometry relative="1" as="geometry">
            <mxPoint x="870" y="270" as="sourcePoint" />
            <mxPoint x="505" y="100" as="targetPoint" />
          </mxGeometry>
        </mxCell>
        <mxCell id="dIth-lzhAZ8oeRemYPZV-6" style="edgeStyle=none;rounded=0;orthogonalLoop=1;jettySize=auto;html=1;entryX=1;entryY=0.5;entryDx=0;entryDy=0;" edge="1" parent="1" target="Tp81bI-9_jp-oIlbRrjL-10">
          <mxGeometry relative="1" as="geometry">
            <mxPoint x="870" y="270" as="sourcePoint" />
            <mxPoint x="514" y="160" as="targetPoint" />
          </mxGeometry>
        </mxCell>
        <mxCell id="dIth-lzhAZ8oeRemYPZV-7" style="edgeStyle=none;rounded=0;orthogonalLoop=1;jettySize=auto;html=1;" edge="1" parent="1" target="Tp81bI-9_jp-oIlbRrjL-11">
          <mxGeometry relative="1" as="geometry">
            <mxPoint x="870" y="270" as="sourcePoint" />
            <mxPoint x="510" y="235" as="targetPoint" />
          </mxGeometry>
        </mxCell>
        <mxCell id="dIth-lzhAZ8oeRemYPZV-8" style="edgeStyle=none;rounded=0;orthogonalLoop=1;jettySize=auto;html=1;entryX=1;entryY=0.5;entryDx=0;entryDy=0;exitX=0;exitY=0.3333333333333333;exitDx=0;exitDy=0;exitPerimeter=0;" edge="1" parent="1" source="FshZVi81owRnNkDoLixd-3" target="dIth-lzhAZ8oeRemYPZV-4">
          <mxGeometry relative="1" as="geometry">
            <mxPoint x="880" y="280" as="sourcePoint" />
            <mxPoint x="513" y="298" as="targetPoint" />
          </mxGeometry>
        </mxCell>
        <mxCell id="dIth-lzhAZ8oeRemYPZV-10" style="edgeStyle=none;rounded=0;orthogonalLoop=1;jettySize=auto;html=1;entryX=0.995;entryY=0.34;entryDx=0;entryDy=0;entryPerimeter=0;" edge="1" parent="1" target="Tp81bI-9_jp-oIlbRrjL-16">
          <mxGeometry relative="1" as="geometry">
            <mxPoint x="870" y="270" as="sourcePoint" />
            <mxPoint x="484" y="585" as="targetPoint" />
          </mxGeometry>
        </mxCell>
        <mxCell id="dIth-lzhAZ8oeRemYPZV-11" style="edgeStyle=none;rounded=0;orthogonalLoop=1;jettySize=auto;html=1;entryX=0;entryY=0.5;entryDx=0;entryDy=0;exitX=1;exitY=0.3333333333333333;exitDx=0;exitDy=0;exitPerimeter=0;" edge="1" parent="1" source="Tp81bI-9_jp-oIlbRrjL-1" target="dIth-lzhAZ8oeRemYPZV-4">
          <mxGeometry relative="1" as="geometry">
            <mxPoint x="-160" y="450" as="sourcePoint" />
            <mxPoint x="210" y="305" as="targetPoint" />
          </mxGeometry>
        </mxCell>
        <mxCell id="dIth-lzhAZ8oeRemYPZV-12" style="edgeStyle=none;rounded=0;orthogonalLoop=1;jettySize=auto;html=1;exitX=0;exitY=0.3333333333333333;exitDx=0;exitDy=0;exitPerimeter=0;entryX=1;entryY=0.5;entryDx=0;entryDy=0;" edge="1" parent="1" source="FshZVi81owRnNkDoLixd-2" target="dIth-lzhAZ8oeRemYPZV-4">
          <mxGeometry relative="1" as="geometry">
            <mxPoint x="500" y="367" as="targetPoint" />
            <mxPoint x="880" y="500" as="sourcePoint" />
          </mxGeometry>
        </mxCell>
        <mxCell id="dIth-lzhAZ8oeRemYPZV-13" style="edgeStyle=none;rounded=0;orthogonalLoop=1;jettySize=auto;html=1;entryX=1;entryY=0.5;entryDx=0;entryDy=0;" edge="1" parent="1" target="Tp81bI-9_jp-oIlbRrjL-11">
          <mxGeometry relative="1" as="geometry">
            <mxPoint x="500" y="370" as="targetPoint" />
            <mxPoint x="870" y="570" as="sourcePoint" />
          </mxGeometry>
        </mxCell>
        <mxCell id="dIth-lzhAZ8oeRemYPZV-14" style="edgeStyle=none;rounded=0;orthogonalLoop=1;jettySize=auto;html=1;entryX=0.986;entryY=0.616;entryDx=0;entryDy=0;entryPerimeter=0;" edge="1" parent="1" target="Tp81bI-9_jp-oIlbRrjL-18">
          <mxGeometry relative="1" as="geometry">
            <mxPoint x="540" y="291" as="targetPoint" />
            <mxPoint x="860" y="570" as="sourcePoint" />
          </mxGeometry>
        </mxCell>
        <mxCell id="dIth-lzhAZ8oeRemYPZV-15" style="edgeStyle=none;rounded=0;orthogonalLoop=1;jettySize=auto;html=1;entryX=0.989;entryY=0.677;entryDx=0;entryDy=0;entryPerimeter=0;" edge="1" parent="1" target="Tp81bI-9_jp-oIlbRrjL-10">
          <mxGeometry relative="1" as="geometry">
            <mxPoint x="520" y="223" as="targetPoint" />
            <mxPoint x="870" y="570" as="sourcePoint" />
          </mxGeometry>
        </mxCell>
        <mxCell id="k-hiotloEBNPpJEQtQIQ-1" value="Crear, eliminar, modificar, y desactivar usuarios" style="ellipse;whiteSpace=wrap;html=1;" vertex="1" parent="1">
          <mxGeometry x="210" y="20" width="290" height="40" as="geometry" />
        </mxCell>
        <mxCell id="k-hiotloEBNPpJEQtQIQ-2" style="edgeStyle=none;rounded=0;orthogonalLoop=1;jettySize=auto;html=1;exitX=1;exitY=0.3333333333333333;exitDx=0;exitDy=0;exitPerimeter=0;entryX=0;entryY=0.5;entryDx=0;entryDy=0;" edge="1" parent="1" source="Tp81bI-9_jp-oIlbRrjL-1" target="Tp81bI-9_jp-oIlbRrjL-18">
          <mxGeometry relative="1" as="geometry">
            <mxPoint x="-160" y="459" as="sourcePoint" />
            <mxPoint x="220" y="110" as="targetPoint" />
          </mxGeometry>
        </mxCell>
        <mxCell id="k-hiotloEBNPpJEQtQIQ-3" value="&lt;br&gt;Editar la información del negocio&lt;br&gt;&amp;nbsp;" style="ellipse;whiteSpace=wrap;html=1;" vertex="1" parent="1">
          <mxGeometry x="214" y="120" width="290" height="30" as="geometry" />
        </mxCell>
        <mxCell id="k-hiotloEBNPpJEQtQIQ-4" style="edgeStyle=none;rounded=0;orthogonalLoop=1;jettySize=auto;html=1;entryX=0;entryY=0.5;entryDx=0;entryDy=0;" edge="1" parent="1" target="k-hiotloEBNPpJEQtQIQ-3">
          <mxGeometry relative="1" as="geometry">
            <mxPoint x="-170" y="450" as="sourcePoint" />
            <mxPoint x="220" y="100" as="targetPoint" />
          </mxGeometry>
        </mxCell>
        <mxCell id="k-hiotloEBNPpJEQtQIQ-5" style="edgeStyle=none;rounded=0;orthogonalLoop=1;jettySize=auto;html=1;entryX=1;entryY=0.5;entryDx=0;entryDy=0;" edge="1" parent="1" target="Tp81bI-9_jp-oIlbRrjL-9">
          <mxGeometry relative="1" as="geometry">
            <mxPoint x="870" y="270" as="sourcePoint" />
            <mxPoint x="510" y="390" as="targetPoint" />
          </mxGeometry>
        </mxCell>
        <mxCell id="k-hiotloEBNPpJEQtQIQ-6" value="Generar unas ventas" style="ellipse;whiteSpace=wrap;html=1;" vertex="1" parent="1">
          <mxGeometry x="195" y="564.5" width="290" height="40" as="geometry" />
        </mxCell>
        <mxCell id="k-hiotloEBNPpJEQtQIQ-7" style="edgeStyle=none;rounded=0;orthogonalLoop=1;jettySize=auto;html=1;entryX=1;entryY=0.5;entryDx=0;entryDy=0;" edge="1" parent="1" target="k-hiotloEBNPpJEQtQIQ-6">
          <mxGeometry relative="1" as="geometry">
            <mxPoint x="870" y="270" as="sourcePoint" />
            <mxPoint x="484" y="530" as="targetPoint" />
          </mxGeometry>
        </mxCell>
        <mxCell id="k-hiotloEBNPpJEQtQIQ-8" style="edgeStyle=none;rounded=0;orthogonalLoop=1;jettySize=auto;html=1;exitX=0;exitY=0.3333333333333333;exitDx=0;exitDy=0;exitPerimeter=0;entryX=1;entryY=0.5;entryDx=0;entryDy=0;" edge="1" parent="1" source="FshZVi81owRnNkDoLixd-2" target="k-hiotloEBNPpJEQtQIQ-6">
          <mxGeometry relative="1" as="geometry">
            <mxPoint x="880" y="582" as="sourcePoint" />
            <mxPoint x="495" y="640" as="targetPoint" />
          </mxGeometry>
        </mxCell>
        <mxCell id="k-hiotloEBNPpJEQtQIQ-9" style="edgeStyle=none;rounded=0;orthogonalLoop=1;jettySize=auto;html=1;entryX=0;entryY=0.5;entryDx=0;entryDy=0;" edge="1" parent="1" target="k-hiotloEBNPpJEQtQIQ-6">
          <mxGeometry relative="1" as="geometry">
            <mxPoint x="-170" y="450" as="sourcePoint" />
            <mxPoint x="205" y="540" as="targetPoint" />
          </mxGeometry>
        </mxCell>
        <mxCell id="k-hiotloEBNPpJEQtQIQ-10" value="Visualizar lista de suarios" style="ellipse;whiteSpace=wrap;html=1;" vertex="1" parent="1">
          <mxGeometry x="190" y="770" width="290" height="40" as="geometry" />
        </mxCell>
        <mxCell id="k-hiotloEBNPpJEQtQIQ-11" style="edgeStyle=none;rounded=0;orthogonalLoop=1;jettySize=auto;html=1;entryX=0;entryY=0.5;entryDx=0;entryDy=0;" edge="1" parent="1" target="k-hiotloEBNPpJEQtQIQ-10">
          <mxGeometry relative="1" as="geometry">
            <mxPoint x="-170" y="450" as="sourcePoint" />
            <mxPoint x="200" y="750" as="targetPoint" />
          </mxGeometry>
        </mxCell>
      </root>
    </mxGraphModel>
  </diagram>
</mxfile>
